<?xml version="1.0" encoding="UTF-8" standalone="no"?>
<!-- Generator: Adobe Illustrator 19.1.0, SVG Export Plug-In . SVG Version: 6.00 Build 0)  -->

<svg
   xmlns:dc="http://purl.org/dc/elements/1.1/"
   xmlns:cc="http://creativecommons.org/ns#"
   xmlns:rdf="http://www.w3.org/1999/02/22-rdf-syntax-ns#"
   xmlns:svg="http://www.w3.org/2000/svg"
   xmlns="http://www.w3.org/2000/svg"
   xmlns:sodipodi="http://sodipodi.sourceforge.net/DTD/sodipodi-0.dtd"
   xmlns:inkscape="http://www.inkscape.org/namespaces/inkscape"
   version="1.1"
   id="Layer_1"
   x="0px"
   y="0px"
   viewBox="0 0 1366 768"
   xml:space="preserve"
   inkscape:version="0.91 r13725"
   sodipodi:docname="listen_silent.svg"
   width="1366"
   height="768"><metadata
     id="metadata16590"><rdf:RDF><cc:Work
         rdf:about=""><dc:format>image/svg+xml</dc:format><dc:type
           rdf:resource="http://purl.org/dc/dcmitype/StillImage" /><dc:title></dc:title></cc:Work></rdf:RDF></metadata><defs
     id="defs16588" /><sodipodi:namedview
     pagecolor="#ffffff"
     bordercolor="#666666"
     borderopacity="1"
     objecttolerance="10"
     gridtolerance="10"
     guidetolerance="10"
     inkscape:pageopacity="0"
     inkscape:pageshadow="2"
     inkscape:window-width="1288"
     inkscape:window-height="601"
     id="namedview16586"
     showgrid="false"
     inkscape:zoom="0.21608833"
     inkscape:cx="-59.322484"
     inkscape:cy="569.81767"
     inkscape:window-x="0"
     inkscape:window-y="0"
     inkscape:window-maximized="0"
     inkscape:current-layer="Layer_1" /><style
     type="text/css"
     id="style16366">
	.st0{fill:#FFFFFF;}
</style><path
     style="fill:none;stroke:#000000;stroke-width:2.44881964;stroke-miterlimit:4;stroke-dasharray:none;stroke-opacity:1"
     d="m 187.50794,196.29865 0,108.53245 100.89137,0 0,-20.17599 -80.71157,0 0,-88.35646 -20.1798,0 z m 481.73257,0 0,20.37494 44.07876,0 0,88.15751 20.1798,0 0,-88.15751 44.07875,0 0,-20.37494 -108.33731,0 z m 205.31057,0 0,108.53245 20.17599,0 81.89005,0 0,-20.17599 -81.89005,0 0,-23.90277 81.89005,0 0,-20.17598 -81.89005,0 0,-23.90277 81.69491,0 0,-20.37494 -81.69491,0 -20.17599,0 z m 302.08482,0 0,79.34175 -78.7525,-78.94765 -0.1951,0.19514 -20.1798,0 0,107.94321 20.1798,0 0,-79.5369 78.9477,79.5369 20.1798,0 0,-108.53245 -20.1798,0 z m -626.30854,0.3941 c -28.40631,-0.39181 -49.36821,12.53643 -49.95592,30.75564 -0.19591,7.64032 2.54677,17.82818 16.65197,23.31353 7.83622,2.93859 17.43483,3.91735 27.62192,5.09278 31.14899,3.3304 36.63434,7.83546 36.24253,18.80617 -0.1959,1.76315 -0.58924,3.92117 -3.52782,6.07613 -7.83623,5.68127 -26.05392,6.85441 -41.53046,2.54448 -17.82741,-4.89764 -22.13886,-12.33976 -22.13886,-12.33976 0.19591,0.19591 0.19896,0.39029 0.19896,0.39029 l -17.24121,7.44594 c 0.97952,2.54677 7.83698,15.47577 34.08833,22.72428 7.0526,1.95906 15.67321,3.13373 24.29306,3.13373 12.14614,0 24.48819,-2.54601 33.30394,-9.0109 7.0526,-5.09354 10.96919,-12.14691 11.16509,-20.37494 1.17544,-32.12852 -31.34489,-35.65558 -52.8945,-38.00645 -23.90048,-2.54677 -27.81783,-4.89534 -27.62192,-9.40117 0.1959,-5.28945 11.36328,-12.93053 31.14975,-12.53872 20.17827,0.39181 37.41643,12.92824 37.61234,13.12414 l 11.16509,-14.88806 c -0.97953,-0.78362 -22.13504,-16.4553 -48.58229,-16.84711 z m -169.65347,0.19514 0,108.53245 20.17599,0 0,-108.53245 -20.17599,0 z"
     id="rect16438"
     inkscape:connector-curvature="0" /><path
     style="fill:none;stroke:#000000;stroke-width:2.44881964;stroke-miterlimit:4;stroke-dasharray:none;stroke-opacity:1"
     d="m 380.67389,465.69943 0,108.53245 20.17599,0 0,-108.53245 -20.17599,0 z m 119.69755,0 0,108.53245 20.17598,0 80.91053,0 0,-20.1798 -80.91053,0 0,-88.35265 -20.17598,0 z m 186.50058,0 0,108.53245 20.1798,0 81.88624,0 0,-20.1798 -81.88624,0 0,-23.89895 81.88624,0 0,-20.1798 -81.88624,0 0,-24.0941 81.69109,0 0,-20.1798 -81.69109,0 -20.1798,0 z m 290.72463,0 0,79.14662 -78.75251,-78.75634 -0.19896,0.19896 -20.17598,0 0,107.94321 20.17598,0 0,-79.73586 78.95147,79.73586 20.17981,0 0,-108.53245 -20.17981,0 z m 99.91185,0 0,20.1798 44.0787,0 0,88.35265 20.1798,0 0,-88.35265 44.0788,0 0,-20.1798 -108.3373,0 z m -840.23978,0.19512 c -28.40631,-0.39181 -49.3682,12.54025 -49.95592,30.75947 -0.1959,7.64032 2.54677,17.82435 16.65197,23.30971 7.83623,2.93858 17.43484,3.92116 27.62193,5.0966 31.14898,3.33039 36.63434,7.83546 36.24253,18.80617 -0.19591,1.76315 -0.58543,3.91735 -3.52401,6.07231 -7.83622,5.68126 -26.05774,6.85822 -41.53428,2.5483 -17.8274,-4.89764 -22.13503,-12.34358 -22.13503,-12.34358 0.1959,0.1959 0.19514,0.39028 0.19514,0.39028 l -17.24122,7.44594 c 0.97953,2.54677 7.83699,15.47578 34.08834,22.72428 7.0526,1.95906 15.67321,3.13373 24.29305,3.13373 12.14615,0 24.6841,-2.3501 33.30395,-9.01089 7.0526,-5.09355 10.96918,-12.14691 11.16509,-20.37495 1.17543,-32.12851 -31.34489,-35.65175 -52.89451,-38.00262 -23.90048,-2.54677 -27.81782,-4.89917 -27.62192,-9.405 0.19591,-5.28945 11.36329,-12.93053 31.14975,-12.53872 20.17828,0.39181 37.41644,12.93206 37.61234,13.12797 l 11.16891,-14.89188 c -0.97952,-0.78362 -22.13885,-16.45531 -48.58611,-16.84712 z"
     id="rect16440"
     inkscape:connector-curvature="0" /><rect
     style="opacity:0.58999999;fill:none;fill-opacity:1;stroke:#000000;stroke-width:1.25;stroke-linecap:round;stroke-miterlimit:4;stroke-dasharray:none;stroke-opacity:1"
     id="rect17864"
     width="1374.438"
     height="772.83215"
     x="-4.6277375"
     y="-4.8321276" /></svg>