<?xml version="1.0" encoding="UTF-8" standalone="no"?>
<!-- Generator: Adobe Illustrator 19.1.0, SVG Export Plug-In . SVG Version: 6.00 Build 0)  -->

<svg
   xmlns:dc="http://purl.org/dc/elements/1.1/"
   xmlns:cc="http://creativecommons.org/ns#"
   xmlns:rdf="http://www.w3.org/1999/02/22-rdf-syntax-ns#"
   xmlns:svg="http://www.w3.org/2000/svg"
   xmlns="http://www.w3.org/2000/svg"
   xmlns:sodipodi="http://sodipodi.sourceforge.net/DTD/sodipodi-0.dtd"
   xmlns:inkscape="http://www.inkscape.org/namespaces/inkscape"
   version="1.1"
   id="Layer_1"
   x="0px"
   y="0px"
   viewBox="0 0 1268 612"
   style="enable-background:new 0 0 1268 612;"
   xml:space="preserve"
   inkscape:version="0.91 r13725"
   sodipodi:docname="S.svg"><metadata
     id="metadata16590"><rdf:RDF><cc:Work
         rdf:about=""><dc:format>image/svg+xml</dc:format><dc:type
           rdf:resource="http://purl.org/dc/dcmitype/StillImage" /><dc:title></dc:title></cc:Work></rdf:RDF></metadata><defs
     id="defs16588" /><sodipodi:namedview
     pagecolor="#ffffff"
     bordercolor="#666666"
     borderopacity="1"
     objecttolerance="10"
     gridtolerance="10"
     guidetolerance="10"
     inkscape:pageopacity="0"
     inkscape:pageshadow="2"
     inkscape:window-width="1288"
     inkscape:window-height="601"
     id="namedview16586"
     showgrid="false"
     inkscape:zoom="0.15279752"
     inkscape:cx="210.97877"
     inkscape:cy="470.51439"
     inkscape:window-x="0"
     inkscape:window-y="0"
     inkscape:window-maximized="0"
     inkscape:current-layer="Layer_1" /><style
     type="text/css"
     id="style16366">
	.st0{fill:#FFFFFF;}
</style><path
     style="fill:none;stroke:#000000;stroke-width:2.44881964;stroke-miterlimit:4;stroke-dasharray:none;stroke-opacity:1"
     d="m 458.70284,93.049622 c -28.40631,-0.391811 -49.36821,12.536428 -49.95592,30.755638 -0.19591,7.64032 2.54677,17.82818 16.65197,23.31353 7.83622,2.93859 17.43483,3.91735 27.62192,5.09278 31.14899,3.3304 36.63434,7.83546 36.24253,18.80617 -0.1959,1.76315 -0.58924,3.92117 -3.52782,6.07613 -7.83623,5.68127 -26.05392,6.85441 -41.53046,2.54448 -17.82741,-4.89764 -22.13886,-12.33976 -22.13886,-12.33976 0.19591,0.19591 0.19896,0.39029 0.19896,0.39029 l -17.24121,7.44594 c 0.97952,2.54677 7.83698,15.47577 34.08833,22.72428 7.0526,1.95906 15.67321,3.13373 24.29306,3.13373 12.14614,0 24.48819,-2.54601 33.30394,-9.0109 7.0526,-5.09354 10.96919,-12.14691 11.16509,-20.37494 1.17544,-32.12852 -31.34489,-35.65558 -52.8945,-38.00645 -23.90048,-2.54677 -27.81783,-4.89534 -27.62192,-9.40117 0.1959,-5.28945 11.36328,-12.93053 31.14975,-12.53872 20.17827,0.39181 37.41643,12.92824 37.61234,13.12414 l 11.16509,-14.88806 C 506.3056,109.11311 485.15009,93.441433 458.70284,93.049622 Z"
     id="path17136" /></svg>